<svg xmlns="http://www.w3.org/2000/svg" xmlns:xlink="http://www.w3.org/1999/xlink" contentStyleType="text/css" data-diagram-type="CLASS" height="605px" preserveAspectRatio="none" style="width:2966px;height:605px;background:#FFFFFF;" version="1.1" viewBox="0 0 2966 605" width="2966px" zoomAndPan="magnify"><defs/><g><!--class Vehicle--><g class="entity" data-qualified-name="Vehicle" data-source-line="6" id="ent0002"><rect fill="#F1F1F1" height="145.7813" rx="2.5" ry="2.5" style="stroke:#181818;stroke-width:0.5;" width="276.9951" x="308" y="213.48"/><ellipse cx="416.6709" cy="229.48" fill="#A9DCDF" rx="11" ry="11" style="stroke:#181818;stroke-width:1;"/><path d="M416.7803,224.8238 L415.624,229.9019 L417.9521,229.9019 L416.7803,224.8238 Z M415.2959,222.5894 L418.2803,222.5894 L421.6396,234.98 L419.1865,234.98 L418.4209,231.9175 L415.1396,231.9175 L414.3896,234.98 L411.9521,234.98 L415.2959,222.5894 Z " fill="#000000"/><text fill="#000000" font-family="sans-serif" font-size="14" font-style="italic" lengthAdjust="spacing" textLength="51.1533" x="437.1709" y="234.3267">Vehicle</text><line style="stroke:#181818;stroke-width:0.5;" x1="309" x2="583.9951" y1="245.48" y2="245.48"/><text fill="#000000" font-family="sans-serif" font-size="14" lengthAdjust="spacing" textLength="139.8838" x="314" y="262.4751">-licensePlate: String</text><text fill="#000000" font-family="sans-serif" font-size="14" lengthAdjust="spacing" textLength="118.043" x="314" y="278.772">-mileage: double</text><text fill="#000000" font-family="sans-serif" font-size="14" lengthAdjust="spacing" textLength="125.4395" x="314" y="295.0689">-fuelLevel: double</text><line style="stroke:#181818;stroke-width:0.5;" x1="309" x2="583.9951" y1="302.3706" y2="302.3706"/><text fill="#000000" font-family="sans-serif" font-size="14" lengthAdjust="spacing" textLength="264.9951" x="314" y="319.3657">+calculateFuelConsumption(): double</text><text fill="#000000" font-family="sans-serif" font-size="14" lengthAdjust="spacing" textLength="153.2344" x="314" y="335.6626">+isHealthy(): boolean</text><text fill="#000000" font-family="sans-serif" font-size="14" lengthAdjust="spacing" textLength="246.9551" x="314" y="351.9595">+getRequiredLicenseType(): String</text></g><!--class Truck--><g class="entity" data-qualified-name="Truck" data-source-line="15" id="ent0003"><rect fill="#F1F1F1" height="96.8906" rx="2.5" ry="2.5" style="stroke:#181818;stroke-width:0.5;" width="276.9951" x="319" y="23.29"/><ellipse cx="433.7549" cy="39.29" fill="#ADD1B2" rx="11" ry="11" style="stroke:#181818;stroke-width:1;"/><path d="M436.7236,44.9306 Q436.1455,45.2275 435.5049,45.3681 Q434.8643,45.5244 434.1611,45.5244 Q431.6611,45.5244 430.333,43.8838 Q429.0205,42.2275 429.0205,39.1025 Q429.0205,35.9775 430.333,34.3213 Q431.6611,32.665 434.1611,32.665 Q434.8643,32.665 435.5049,32.8213 Q436.1611,32.9775 436.7236,33.2744 L436.7236,35.9931 Q436.0986,35.415 435.5049,35.1494 Q434.9111,34.8681 434.2861,34.8681 Q432.9424,34.8681 432.2549,35.9463 Q431.5674,37.0088 431.5674,39.1025 Q431.5674,41.1963 432.2549,42.2744 Q432.9424,43.3369 434.2861,43.3369 Q434.9111,43.3369 435.5049,43.0713 Q436.0986,42.79 436.7236,42.2119 L436.7236,44.9306 Z " fill="#000000"/><text fill="#000000" font-family="sans-serif" font-size="14" lengthAdjust="spacing" textLength="38.9854" x="454.2549" y="44.1367">Truck</text><line style="stroke:#181818;stroke-width:0.5;" x1="320" x2="594.9951" y1="55.29" y2="55.29"/><line style="stroke:#181818;stroke-width:0.5;" x1="320" x2="594.9951" y1="63.29" y2="63.29"/><text fill="#000000" font-family="sans-serif" font-size="14" lengthAdjust="spacing" textLength="264.9951" x="325" y="80.2851">+calculateFuelConsumption(): double</text><text fill="#000000" font-family="sans-serif" font-size="14" lengthAdjust="spacing" textLength="153.2344" x="325" y="96.582">+isHealthy(): boolean</text><text fill="#000000" font-family="sans-serif" font-size="14" lengthAdjust="spacing" textLength="246.9551" x="325" y="112.8789">+getRequiredLicenseType(): String</text></g><!--class Van--><g class="entity" data-qualified-name="Van" data-source-line="21" id="ent0004"><rect fill="#F1F1F1" height="96.8906" rx="2.5" ry="2.5" style="stroke:#181818;stroke-width:0.5;" width="276.9951" x="7" y="23.29"/><ellipse cx="127.7329" cy="39.29" fill="#ADD1B2" rx="11" ry="11" style="stroke:#181818;stroke-width:1;"/><path d="M130.7017,44.9306 Q130.1235,45.2275 129.4829,45.3681 Q128.8423,45.5244 128.1392,45.5244 Q125.6392,45.5244 124.311,43.8838 Q122.9985,42.2275 122.9985,39.1025 Q122.9985,35.9775 124.311,34.3213 Q125.6392,32.665 128.1392,32.665 Q128.8423,32.665 129.4829,32.8213 Q130.1392,32.9775 130.7017,33.2744 L130.7017,35.9931 Q130.0767,35.415 129.4829,35.1494 Q128.8892,34.8681 128.2642,34.8681 Q126.9204,34.8681 126.2329,35.9463 Q125.5454,37.0088 125.5454,39.1025 Q125.5454,41.1963 126.2329,42.2744 Q126.9204,43.3369 128.2642,43.3369 Q128.8892,43.3369 129.4829,43.0713 Q130.0767,42.79 130.7017,42.2119 L130.7017,44.9306 Z " fill="#000000"/><text fill="#000000" font-family="sans-serif" font-size="14" lengthAdjust="spacing" textLength="27.0293" x="148.2329" y="44.1367">Van</text><line style="stroke:#181818;stroke-width:0.5;" x1="8" x2="282.9951" y1="55.29" y2="55.29"/><line style="stroke:#181818;stroke-width:0.5;" x1="8" x2="282.9951" y1="63.29" y2="63.29"/><text fill="#000000" font-family="sans-serif" font-size="14" lengthAdjust="spacing" textLength="264.9951" x="13" y="80.2851">+calculateFuelConsumption(): double</text><text fill="#000000" font-family="sans-serif" font-size="14" lengthAdjust="spacing" textLength="153.2344" x="13" y="96.582">+isHealthy(): boolean</text><text fill="#000000" font-family="sans-serif" font-size="14" lengthAdjust="spacing" textLength="246.9551" x="13" y="112.8789">+getRequiredLicenseType(): String</text></g><!--class Driver--><g class="entity" data-qualified-name="Driver" data-source-line="27" id="ent0005"><rect fill="#F1F1F1" height="113.1875" rx="2.5" ry="2.5" style="stroke:#181818;stroke-width:0.5;" width="264.5264" x="1015.23" y="229.78"/><ellipse cx="1121.7031" cy="245.78" fill="#ADD1B2" rx="11" ry="11" style="stroke:#181818;stroke-width:1;"/><path d="M1124.6719,251.4206 Q1124.0938,251.7175 1123.4531,251.8581 Q1122.8125,252.0144 1122.1094,252.0144 Q1119.6094,252.0144 1118.2813,250.3738 Q1116.9688,248.7175 1116.9688,245.5925 Q1116.9688,242.4675 1118.2813,240.8113 Q1119.6094,239.155 1122.1094,239.155 Q1122.8125,239.155 1123.4531,239.3113 Q1124.1094,239.4675 1124.6719,239.7644 L1124.6719,242.4831 Q1124.0469,241.905 1123.4531,241.6394 Q1122.8594,241.3581 1122.2344,241.3581 Q1120.8906,241.3581 1120.2031,242.4363 Q1119.5156,243.4988 1119.5156,245.5925 Q1119.5156,247.6863 1120.2031,248.7644 Q1120.8906,249.8269 1122.2344,249.8269 Q1122.8594,249.8269 1123.4531,249.5613 Q1124.0469,249.28 1124.6719,248.7019 L1124.6719,251.4206 Z " fill="#000000"/><text fill="#000000" font-family="sans-serif" font-size="14" lengthAdjust="spacing" textLength="43.0801" x="1142.2031" y="250.6267">Driver</text><line style="stroke:#181818;stroke-width:0.5;" x1="1016.23" x2="1278.7564" y1="261.78" y2="261.78"/><text fill="#000000" font-family="sans-serif" font-size="14" lengthAdjust="spacing" textLength="45.2471" x="1021.23" y="278.7751">-id: int</text><text fill="#000000" font-family="sans-serif" font-size="14" lengthAdjust="spacing" textLength="95.7031" x="1021.23" y="295.072">-name: String</text><text fill="#000000" font-family="sans-serif" font-size="14" lengthAdjust="spacing" textLength="139.207" x="1021.23" y="311.3689">-licenseType: String</text><line style="stroke:#181818;stroke-width:0.5;" x1="1016.23" x2="1278.7564" y1="318.6706" y2="318.6706"/><text fill="#000000" font-family="sans-serif" font-size="14" lengthAdjust="spacing" textLength="252.5264" x="1021.23" y="335.6657">+isQualifiedFor(v: Vehicle): boolean</text></g><!--class User--><g class="entity" data-qualified-name="User" data-source-line="34" id="ent0006"><rect fill="#F1F1F1" height="113.1875" rx="2.5" ry="2.5" style="stroke:#181818;stroke-width:0.5;" width="200.6104" x="2552.19" y="15.14"/><ellipse cx="2632.2901" cy="31.14" fill="#ADD1B2" rx="11" ry="11" style="stroke:#181818;stroke-width:1;"/><path d="M2635.2588,36.7806 Q2634.6807,37.0775 2634.0401,37.2181 Q2633.3995,37.3744 2632.6963,37.3744 Q2630.1963,37.3744 2628.8682,35.7337 Q2627.5557,34.0775 2627.5557,30.9525 Q2627.5557,27.8275 2628.8682,26.1712 Q2630.1963,24.515 2632.6963,24.515 Q2633.3995,24.515 2634.0401,24.6712 Q2634.6963,24.8275 2635.2588,25.1244 L2635.2588,27.8431 Q2634.6338,27.265 2634.0401,26.9994 Q2633.4463,26.7181 2632.8213,26.7181 Q2631.4776,26.7181 2630.7901,27.7962 Q2630.1026,28.8587 2630.1026,30.9525 Q2630.1026,33.0462 2630.7901,34.1244 Q2631.4776,35.1869 2632.8213,35.1869 Q2633.4463,35.1869 2634.0401,34.9212 Q2634.6338,34.64 2635.2588,34.0619 L2635.2588,36.7806 Z " fill="#000000"/><text fill="#000000" font-family="sans-serif" font-size="14" lengthAdjust="spacing" textLength="31.9102" x="2652.7901" y="35.9867">User</text><line style="stroke:#181818;stroke-width:0.5;" x1="2553.19" x2="2751.8004" y1="47.14" y2="47.14"/><text fill="#000000" font-family="sans-serif" font-size="14" lengthAdjust="spacing" textLength="45.2471" x="2558.19" y="64.1351">-id: int</text><text fill="#000000" font-family="sans-serif" font-size="14" lengthAdjust="spacing" textLength="126.2393" x="2558.19" y="80.432">-username: String</text><text fill="#000000" font-family="sans-serif" font-size="14" lengthAdjust="spacing" textLength="82.8242" x="2558.19" y="96.7289">-role: String</text><line style="stroke:#181818;stroke-width:0.5;" x1="2553.19" x2="2751.8004" y1="104.0306" y2="104.0306"/><text fill="#000000" font-family="sans-serif" font-size="14" lengthAdjust="spacing" textLength="188.6104" x="2558.19" y="121.0257">+login(password): boolean</text></g><!--class Trip--><g class="entity" data-qualified-name="Trip" data-source-line="41" id="ent0007"><rect fill="#F1F1F1" height="162.0781" rx="2.5" ry="2.5" style="stroke:#181818;stroke-width:0.5;" width="357.126" x="919.93" y="436.26"/><ellipse cx="1080.701" cy="452.26" fill="#ADD1B2" rx="11" ry="11" style="stroke:#181818;stroke-width:1;"/><path d="M1083.6697,457.9006 Q1083.0916,458.1975 1082.451,458.3381 Q1081.8104,458.4944 1081.1072,458.4944 Q1078.6072,458.4944 1077.2791,456.8538 Q1075.9666,455.1975 1075.9666,452.0725 Q1075.9666,448.9475 1077.2791,447.2913 Q1078.6072,445.635 1081.1072,445.635 Q1081.8104,445.635 1082.451,445.7913 Q1083.1072,445.9475 1083.6697,446.2444 L1083.6697,448.9631 Q1083.0447,448.385 1082.451,448.1194 Q1081.8572,447.8381 1081.2322,447.8381 Q1079.8885,447.8381 1079.201,448.9163 Q1078.5135,449.9788 1078.5135,452.0725 Q1078.5135,454.1663 1079.201,455.2444 Q1079.8885,456.3069 1081.2322,456.3069 Q1081.8572,456.3069 1082.451,456.0413 Q1083.0447,455.76 1083.6697,455.1819 L1083.6697,457.9006 Z " fill="#000000"/><text fill="#000000" font-family="sans-serif" font-size="14" lengthAdjust="spacing" textLength="27.084" x="1101.201" y="457.1067">Trip</text><line style="stroke:#181818;stroke-width:0.5;" x1="920.93" x2="1276.056" y1="468.26" y2="468.26"/><text fill="#000000" font-family="sans-serif" font-size="14" lengthAdjust="spacing" textLength="45.2471" x="925.93" y="485.2551">-id: int</text><text fill="#000000" font-family="sans-serif" font-size="14" lengthAdjust="spacing" textLength="148.0664" x="925.93" y="501.552">-startLocation: String</text><text fill="#000000" font-family="sans-serif" font-size="14" lengthAdjust="spacing" textLength="141.832" x="925.93" y="517.8489">-endLocation: String</text><text fill="#000000" font-family="sans-serif" font-size="14" lengthAdjust="spacing" textLength="154" x="925.93" y="534.1457">-scheduledTime: Date</text><text fill="#000000" font-family="sans-serif" font-size="14" lengthAdjust="spacing" textLength="162.6953" x="925.93" y="550.4426">-assignedDriver: Driver</text><text fill="#000000" font-family="sans-serif" font-size="14" lengthAdjust="spacing" textLength="178.8418" x="925.93" y="566.7395">-assignedVehicle: Vehicle</text><line style="stroke:#181818;stroke-width:0.5;" x1="920.93" x2="1276.056" y1="574.0413" y2="574.0413"/><text fill="#000000" font-family="sans-serif" font-size="14" lengthAdjust="spacing" textLength="345.126" x="925.93" y="591.0364">+assign(driver: Driver, vehicle: Vehicle): boolean</text></g><!--class MaintenanceTicket--><g class="entity" data-qualified-name="MaintenanceTicket" data-source-line="51" id="ent0008"><rect fill="#F1F1F1" height="129.4844" rx="2.5" ry="2.5" style="stroke:#181818;stroke-width:0.5;" width="184.9971" x="675" y="7"/><ellipse cx="699.2202" cy="23" fill="#ADD1B2" rx="11" ry="11" style="stroke:#181818;stroke-width:1;"/><path d="M702.1889,28.6406 Q701.6108,28.9375 700.9702,29.0781 Q700.3295,29.2344 699.6264,29.2344 Q697.1264,29.2344 695.7983,27.5938 Q694.4858,25.9375 694.4858,22.8125 Q694.4858,19.6875 695.7983,18.0313 Q697.1264,16.375 699.6264,16.375 Q700.3295,16.375 700.9702,16.5313 Q701.6264,16.6875 702.1889,16.9844 L702.1889,19.7031 Q701.5639,19.125 700.9702,18.8594 Q700.3764,18.5781 699.7514,18.5781 Q698.4077,18.5781 697.7202,19.6563 Q697.0327,20.7188 697.0327,22.8125 Q697.0327,24.9063 697.7202,25.9844 Q698.4077,27.0469 699.7514,27.0469 Q700.3764,27.0469 700.9702,26.7813 Q701.5639,26.5 702.1889,25.9219 L702.1889,28.6406 Z " fill="#000000"/><text fill="#000000" font-family="sans-serif" font-size="14" lengthAdjust="spacing" textLength="132.5078" x="715.2691" y="27.8467">MaintenanceTicket</text><line style="stroke:#181818;stroke-width:0.5;" x1="676" x2="858.9971" y1="39" y2="39"/><text fill="#000000" font-family="sans-serif" font-size="14" lengthAdjust="spacing" textLength="45.2471" x="681" y="55.9951">-id: int</text><text fill="#000000" font-family="sans-serif" font-size="14" lengthAdjust="spacing" textLength="118.877" x="681" y="72.292">-vehicleId: String</text><text fill="#000000" font-family="sans-serif" font-size="14" lengthAdjust="spacing" textLength="91.9639" x="681" y="88.5889">-issue: String</text><text fill="#000000" font-family="sans-serif" font-size="14" lengthAdjust="spacing" textLength="116.3818" x="681" y="104.8857">-createdAt: Date</text><line style="stroke:#181818;stroke-width:0.5;" x1="676" x2="858.9971" y1="112.1875" y2="112.1875"/><text fill="#000000" font-family="sans-serif" font-size="14" lengthAdjust="spacing" textLength="172.9971" x="681" y="129.1826">+notifyObservers(): void</text></g><!--class InventoryItem--><g class="entity" data-qualified-name="InventoryItem" data-source-line="59" id="ent0009"><rect fill="#F1F1F1" height="113.1875" rx="2.5" ry="2.5" style="stroke:#181818;stroke-width:0.5;" width="171.9746" x="2787.51" y="15.14"/><ellipse cx="2821.0663" cy="31.14" fill="#ADD1B2" rx="11" ry="11" style="stroke:#181818;stroke-width:1;"/><path d="M2824.0351,36.7806 Q2823.457,37.0775 2822.8163,37.2181 Q2822.1757,37.3744 2821.4726,37.3744 Q2818.9726,37.3744 2817.6445,35.7337 Q2816.332,34.0775 2816.332,30.9525 Q2816.332,27.8275 2817.6445,26.1712 Q2818.9726,24.515 2821.4726,24.515 Q2822.1757,24.515 2822.8163,24.6712 Q2823.4726,24.8275 2824.0351,25.1244 L2824.0351,27.8431 Q2823.4101,27.265 2822.8163,26.9994 Q2822.2226,26.7181 2821.5976,26.7181 Q2820.2538,26.7181 2819.5663,27.7962 Q2818.8788,28.8587 2818.8788,30.9525 Q2818.8788,33.0462 2819.5663,34.1244 Q2820.2538,35.1869 2821.5976,35.1869 Q2822.2226,35.1869 2822.8163,34.9212 Q2823.4101,34.64 2824.0351,34.0619 L2824.0351,36.7806 Z " fill="#000000"/><text fill="#000000" font-family="sans-serif" font-size="14" lengthAdjust="spacing" textLength="98.7383" x="2839.19" y="35.9867">InventoryItem</text><line style="stroke:#181818;stroke-width:0.5;" x1="2788.51" x2="2958.4846" y1="47.14" y2="47.14"/><text fill="#000000" font-family="sans-serif" font-size="14" lengthAdjust="spacing" textLength="45.2471" x="2793.51" y="64.1351">-id: int</text><text fill="#000000" font-family="sans-serif" font-size="14" lengthAdjust="spacing" textLength="95.7031" x="2793.51" y="80.432">-name: String</text><text fill="#000000" font-family="sans-serif" font-size="14" lengthAdjust="spacing" textLength="90.8359" x="2793.51" y="96.7289">-quantity: int</text><line style="stroke:#181818;stroke-width:0.5;" x1="2788.51" x2="2958.4846" y1="104.0306" y2="104.0306"/><text fill="#000000" font-family="sans-serif" font-size="14" lengthAdjust="spacing" textLength="159.9746" x="2793.51" y="121.0257">+deduct(qty: int): void</text></g><!--class FleetManager--><g class="entity" data-qualified-name="FleetManager" data-source-line="66" id="ent0010"><rect fill="#F1F1F1" height="80.5938" rx="2.5" ry="2.5" style="stroke:#181818;stroke-width:0.5;" width="377.0732" x="1620.96" y="31.44"/><ellipse cx="1757.2344" cy="47.44" fill="#ADD1B2" rx="11" ry="11" style="stroke:#181818;stroke-width:1;"/><path d="M1760.2032,53.0806 Q1759.625,53.3775 1758.9844,53.5181 Q1758.3438,53.6744 1757.6407,53.6744 Q1755.1407,53.6744 1753.8125,52.0338 Q1752.5,50.3775 1752.5,47.2525 Q1752.5,44.1275 1753.8125,42.4713 Q1755.1407,40.815 1757.6407,40.815 Q1758.3438,40.815 1758.9844,40.9713 Q1759.6407,41.1275 1760.2032,41.4244 L1760.2032,44.1431 Q1759.5782,43.565 1758.9844,43.2994 Q1758.3907,43.0181 1757.7657,43.0181 Q1756.4219,43.0181 1755.7344,44.0963 Q1755.0469,45.1588 1755.0469,47.2525 Q1755.0469,49.3463 1755.7344,50.4244 Q1756.4219,51.4869 1757.7657,51.4869 Q1758.3907,51.4869 1758.9844,51.2213 Q1759.5782,50.94 1760.2032,50.3619 L1760.2032,53.0806 Z " fill="#000000"/><text fill="#000000" font-family="sans-serif" font-size="14" lengthAdjust="spacing" textLength="96.0244" x="1777.7344" y="52.2867">FleetManager</text><line style="stroke:#181818;stroke-width:0.5;" x1="1621.96" x2="1997.0332" y1="63.44" y2="63.44"/><line style="stroke:#181818;stroke-width:0.5;" x1="1621.96" x2="1997.0332" y1="71.44" y2="71.44"/><text fill="#000000" font-family="sans-serif" font-size="14" lengthAdjust="spacing" textLength="201.4346" x="1626.96" y="88.4351">+assignTrip(t: Trip): boolean</text><text fill="#000000" font-family="sans-serif" font-size="14" lengthAdjust="spacing" textLength="365.0732" x="1626.96" y="104.732">+validateAssignment(d: Driver, v: Vehicle): boolean</text></g><!--class InventoryModule--><g class="entity" data-qualified-name="InventoryModule" data-source-line="71" id="ent0011"><rect fill="#F1F1F1" height="80.5938" rx="2.5" ry="2.5" style="stroke:#181818;stroke-width:0.5;" width="360.0381" x="620.48" y="246.07"/><ellipse cx="737.3609" cy="262.07" fill="#ADD1B2" rx="11" ry="11" style="stroke:#181818;stroke-width:1;"/><path d="M740.3296,267.7106 Q739.7515,268.0075 739.1109,268.1481 Q738.4702,268.3044 737.7671,268.3044 Q735.2671,268.3044 733.939,266.6638 Q732.6265,265.0075 732.6265,261.8825 Q732.6265,258.7575 733.939,257.1013 Q735.2671,255.445 737.7671,255.445 Q738.4702,255.445 739.1109,255.6013 Q739.7671,255.7575 740.3296,256.0544 L740.3296,258.7731 Q739.7046,258.195 739.1109,257.9294 Q738.5171,257.6481 737.8921,257.6481 Q736.5484,257.6481 735.8609,258.7263 Q735.1734,259.7888 735.1734,261.8825 Q735.1734,263.9763 735.8609,265.0544 Q736.5484,266.1169 737.8921,266.1169 Q738.5171,266.1169 739.1109,265.8513 Q739.7046,265.57 740.3296,264.9919 L740.3296,267.7106 Z " fill="#000000"/><text fill="#000000" font-family="sans-serif" font-size="14" lengthAdjust="spacing" textLength="117.7764" x="757.8609" y="266.9167">InventoryModule</text><line style="stroke:#181818;stroke-width:0.5;" x1="621.48" x2="979.5181" y1="278.07" y2="278.07"/><line style="stroke:#181818;stroke-width:0.5;" x1="621.48" x2="979.5181" y1="286.07" y2="286.07"/><text fill="#000000" font-family="sans-serif" font-size="14" lengthAdjust="spacing" textLength="330.9004" x="626.48" y="303.0651">+reserveParts(ticket: MaintenanceTicket): void</text><text fill="#000000" font-family="sans-serif" font-size="14" lengthAdjust="spacing" textLength="348.0381" x="626.48" y="319.362">+updateStock(item: InventoryItem, qty: int): void</text></g><!--class MaintenanceScheduler--><g class="entity" data-qualified-name="MaintenanceScheduler" data-source-line="76" id="ent0012"><rect fill="#F1F1F1" height="80.5938" rx="2.5" ry="2.5" style="stroke:#181818;stroke-width:0.5;" width="294.9531" x="1315.02" y="246.07"/><ellipse cx="1378.1225" cy="262.07" fill="#ADD1B2" rx="11" ry="11" style="stroke:#181818;stroke-width:1;"/><path d="M1381.0913,267.7106 Q1380.5132,268.0075 1379.8725,268.1481 Q1379.2319,268.3044 1378.5288,268.3044 Q1376.0288,268.3044 1374.7007,266.6638 Q1373.3882,265.0075 1373.3882,261.8825 Q1373.3882,258.7575 1374.7007,257.1013 Q1376.0288,255.445 1378.5288,255.445 Q1379.2319,255.445 1379.8725,255.6013 Q1380.5288,255.7575 1381.0913,256.0544 L1381.0913,258.7731 Q1380.4663,258.195 1379.8725,257.9294 Q1379.2788,257.6481 1378.6538,257.6481 Q1377.31,257.6481 1376.6225,258.7263 Q1375.935,259.7888 1375.935,261.8825 Q1375.935,263.9763 1376.6225,265.0544 Q1377.31,266.1169 1378.6538,266.1169 Q1379.2788,266.1169 1379.8725,265.8513 Q1380.4663,265.57 1381.0913,264.9919 L1381.0913,267.7106 Z " fill="#000000"/><text fill="#000000" font-family="sans-serif" font-size="14" lengthAdjust="spacing" textLength="160.248" x="1398.6225" y="266.9167">MaintenanceScheduler</text><line style="stroke:#181818;stroke-width:0.5;" x1="1316.02" x2="1608.9731" y1="278.07" y2="278.07"/><line style="stroke:#181818;stroke-width:0.5;" x1="1316.02" x2="1608.9731" y1="286.07" y2="286.07"/><text fill="#000000" font-family="sans-serif" font-size="14" lengthAdjust="spacing" textLength="282.9531" x="1321.02" y="303.0651">+scheduleMaintenance(v: Vehicle): void</text><text fill="#000000" font-family="sans-serif" font-size="14" lengthAdjust="spacing" textLength="228.751" x="1321.02" y="319.362">+predictFailure(v: Vehicle): float</text></g><!--class VehicleDAO--><g class="entity" data-qualified-name="VehicleDAO" data-source-line="81" id="ent0013"><rect fill="#F1F1F1" height="96.8906" rx="2.5" ry="2.5" style="stroke:#181818;stroke-width:0.5;" width="329.7822" x="1644.61" y="237.93"/><ellipse cx="1763.986" cy="253.93" fill="#ADD1B2" rx="11" ry="11" style="stroke:#181818;stroke-width:1;"/><path d="M1766.9547,259.5706 Q1766.3766,259.8675 1765.736,260.0081 Q1765.0954,260.1644 1764.3922,260.1644 Q1761.8922,260.1644 1760.5641,258.5238 Q1759.2516,256.8675 1759.2516,253.7425 Q1759.2516,250.6175 1760.5641,248.9613 Q1761.8922,247.305 1764.3922,247.305 Q1765.0954,247.305 1765.736,247.4613 Q1766.3922,247.6175 1766.9547,247.9144 L1766.9547,250.6331 Q1766.3297,250.055 1765.736,249.7894 Q1765.1422,249.5081 1764.5172,249.5081 Q1763.1735,249.5081 1762.486,250.5863 Q1761.7985,251.6488 1761.7985,253.7425 Q1761.7985,255.8363 1762.486,256.9144 Q1763.1735,257.9769 1764.5172,257.9769 Q1765.1422,257.9769 1765.736,257.7113 Q1766.3297,257.43 1766.9547,256.8519 L1766.9547,259.5706 Z " fill="#000000"/><text fill="#000000" font-family="sans-serif" font-size="14" lengthAdjust="spacing" textLength="82.5303" x="1784.486" y="258.7767">VehicleDAO</text><line style="stroke:#181818;stroke-width:0.5;" x1="1645.61" x2="1973.3922" y1="269.93" y2="269.93"/><line style="stroke:#181818;stroke-width:0.5;" x1="1645.61" x2="1973.3922" y1="277.93" y2="277.93"/><text fill="#000000" font-family="sans-serif" font-size="14" lengthAdjust="spacing" textLength="207.5596" x="1650.61" y="294.9251">+addVehicle(v: Vehicle): void</text><text fill="#000000" font-family="sans-serif" font-size="14" lengthAdjust="spacing" textLength="229.7012" x="1650.61" y="311.222">+getAllVehicles(): List&lt;Vehicle&gt;</text><text fill="#000000" font-family="sans-serif" font-size="14" lengthAdjust="spacing" textLength="317.7822" x="1650.61" y="327.5189">+findVehicleByLicense(plate: String): Vehicle</text></g><!--class DriverDAO--><g class="entity" data-qualified-name="DriverDAO" data-source-line="87" id="ent0014"><rect fill="#F1F1F1" height="80.5938" rx="2.5" ry="2.5" style="stroke:#181818;stroke-width:0.5;" width="227.6602" x="2009.67" y="246.07"/><ellipse cx="2082.0216" cy="262.07" fill="#ADD1B2" rx="11" ry="11" style="stroke:#181818;stroke-width:1;"/><path d="M2084.9903,267.7106 Q2084.4122,268.0075 2083.7716,268.1481 Q2083.1309,268.3044 2082.4278,268.3044 Q2079.9278,268.3044 2078.5997,266.6638 Q2077.2872,265.0075 2077.2872,261.8825 Q2077.2872,258.7575 2078.5997,257.1013 Q2079.9278,255.445 2082.4278,255.445 Q2083.1309,255.445 2083.7716,255.6013 Q2084.4278,255.7575 2084.9903,256.0544 L2084.9903,258.7731 Q2084.3653,258.195 2083.7716,257.9294 Q2083.1778,257.6481 2082.5528,257.6481 Q2081.2091,257.6481 2080.5216,258.7263 Q2079.8341,259.7888 2079.8341,261.8825 Q2079.8341,263.9763 2080.5216,265.0544 Q2081.2091,266.1169 2082.5528,266.1169 Q2083.1778,266.1169 2083.7716,265.8513 Q2084.3653,265.57 2084.9903,264.9919 L2084.9903,267.7106 Z " fill="#000000"/><text fill="#000000" font-family="sans-serif" font-size="14" lengthAdjust="spacing" textLength="74.457" x="2102.5216" y="266.9167">DriverDAO</text><line style="stroke:#181818;stroke-width:0.5;" x1="2010.67" x2="2236.3302" y1="278.07" y2="278.07"/><line style="stroke:#181818;stroke-width:0.5;" x1="2010.67" x2="2236.3302" y1="286.07" y2="286.07"/><text fill="#000000" font-family="sans-serif" font-size="14" lengthAdjust="spacing" textLength="192.0146" x="2015.67" y="303.0651">+addDriver(d: Driver): void</text><text fill="#000000" font-family="sans-serif" font-size="14" lengthAdjust="spacing" textLength="215.6602" x="2015.67" y="319.362">+findDriverById(id: int): Driver</text></g><!--class DBConnection--><g class="entity" data-qualified-name="DBConnection" data-source-line="92" id="ent0015"><rect fill="#F1F1F1" height="72.5625" rx="2.5" ry="2.5" style="stroke:#181818;stroke-width:0.5;" width="225.2402" x="1853.88" y="481.02"/><ellipse cx="1912.4503" cy="501.1528" fill="#ADD1B2" rx="11" ry="11" style="stroke:#181818;stroke-width:1;"/><path d="M1915.4191,506.7934 Q1914.8409,507.0903 1914.2003,507.2309 Q1913.5597,507.3872 1912.8566,507.3872 Q1910.3566,507.3872 1909.0284,505.7466 Q1907.7159,504.0903 1907.7159,500.9653 Q1907.7159,497.8403 1909.0284,496.1841 Q1910.3566,494.5278 1912.8566,494.5278 Q1913.5597,494.5278 1914.2003,494.6841 Q1914.8566,494.8403 1915.4191,495.1372 L1915.4191,497.8559 Q1914.7941,497.2778 1914.2003,497.0122 Q1913.6066,496.7309 1912.9816,496.7309 Q1911.6378,496.7309 1910.9503,497.8091 Q1910.2628,498.8716 1910.2628,500.9653 Q1910.2628,503.0591 1910.9503,504.1372 Q1911.6378,505.1997 1912.9816,505.1997 Q1913.6066,505.1997 1914.2003,504.9341 Q1914.7941,504.6528 1915.4191,504.0747 L1915.4191,506.7934 Z " fill="#000000"/><text fill="#000000" font-family="sans-serif" font-size="12" font-style="italic" lengthAdjust="spacing" textLength="69.8613" x="1947.8195" y="497.1587">&#171;singleton&#187;</text><text fill="#000000" font-family="sans-serif" font-size="14" lengthAdjust="spacing" textLength="99.5996" x="1932.9503" y="512.9839">DBConnection</text><line style="stroke:#181818;stroke-width:0.5;" x1="1854.88" x2="2078.1202" y1="521.2856" y2="521.2856"/><line style="stroke:#181818;stroke-width:0.5;" x1="1854.88" x2="2078.1202" y1="529.2856" y2="529.2856"/><text fill="#000000" font-family="sans-serif" font-size="14" lengthAdjust="spacing" textLength="213.2402" x="1859.88" y="546.2807">+getConnection(): Connection</text></g><g class="entity" data-qualified-name="GMN28" data-source-line="116" id="ent0029"><path d="M2173.87,51.61 L2173.87,91.8756 L2517.1278,91.8756 L2517.1278,61.61 L2507.1278,51.61 L2173.87,51.61" fill="#FEFFDD" style="stroke:#181818;stroke-width:0.5;"/><path d="M2507.1278,51.61 L2507.1278,61.61 L2517.1278,61.61 L2507.1278,51.61" fill="#FEFFDD" style="stroke:#181818;stroke-width:1;"/><text fill="#000000" font-family="sans-serif" font-size="13" lengthAdjust="spacing" textLength="264.9766" x="2179.87" y="68.6769">- FleetManager coordinates assignments</text><text fill="#000000" font-family="sans-serif" font-size="13" lengthAdjust="spacing" textLength="322.2578" x="2179.87" y="83.8097">- Validates driver license vs vehicle required type</text></g><g class="entity" data-qualified-name="GMN31" data-source-line="121" id="ent0032"><path d="M2272.66,251.11 L2272.66,321.6413 L2700.3353,321.6413 L2700.3353,261.11 L2690.3353,251.11 L2272.66,251.11" fill="#FEFFDD" style="stroke:#181818;stroke-width:0.5;"/><path d="M2690.3353,251.11 L2690.3353,261.11 L2700.3353,261.11 L2690.3353,251.11" fill="#FEFFDD" style="stroke:#181818;stroke-width:1;"/><text fill="#000000" font-family="sans-serif" font-size="13" lengthAdjust="spacing" textLength="406.6753" x="2278.66" y="268.1769">This is a high-level sketch. Add attributes/methods as needed.</text><text fill="#000000" font-family="sans-serif" font-size="13" lengthAdjust="spacing" textLength="245.1973" x="2278.66" y="283.3097">Suggested next steps for AI renderer:</text><text fill="#000000" font-family="sans-serif" font-size="13" lengthAdjust="spacing" textLength="270.3721" x="2282.7923" y="298.4425">- Render PNG/SVG from this PlantUML file</text><text fill="#000000" font-family="sans-serif" font-size="13" lengthAdjust="spacing" textLength="354.561" x="2282.7923" y="313.5753">- Or convert to a UML diagram in your preferred editor</text></g><!--link Truck to Vehicle--><g class="link" data-entity-1="ent0003" data-entity-2="ent0002" data-link-type="extension" data-source-line="97" id="lnk16"><path codeLine="97" d="M455.03,120.46 C453.62,147.76 452.7543,164.5943 451.1643,195.1843" fill="none" id="Truck-to-Vehicle" style="stroke:#181818;stroke-width:1;"/><polygon fill="none" points="450.23,213.16,457.1562,195.4957,445.1724,194.8728,450.23,213.16" style="stroke:#181818;stroke-width:1;"/></g><!--link Van to Vehicle--><g class="link" data-entity-1="ent0004" data-entity-2="ent0002" data-link-type="extension" data-source-line="98" id="lnk17"><path codeLine="98" d="M213.05,120.46 C251.7,147.76 286.2686,172.184 329.5686,202.774" fill="none" id="Van-to-Vehicle" style="stroke:#181818;stroke-width:1;"/><polygon fill="none" points="344.27,213.16,333.0306,197.8735,326.1066,207.6744,344.27,213.16" style="stroke:#181818;stroke-width:1;"/></g><!--link Driver to Trip--><g class="link" data-entity-1="ent0005" data-entity-2="ent0007" data-link-type="association" data-source-line="100" id="lnk18"><path codeLine="100" d="M1135.51,343.37 C1129.56,371.17 1122.27,405.26 1115.73,435.8" fill="none" id="Driver-Trip" style="stroke:#181818;stroke-width:1;"/><polygon fill="#000000" points="1128.4537,402.7157,1133.2203,394.4859,1127.4726,393.2559,1128.4537,402.7157" style="stroke:#000000;stroke-width:1;"/><text fill="#000000" font-family="sans-serif" font-size="13" lengthAdjust="spacing" textLength="73.7598" x="1138.5" y="402.3269">assignedTo</text><text fill="#000000" font-family="sans-serif" font-size="13" lengthAdjust="spacing" textLength="8.271" x="1125.6776" y="362.902">1</text><text fill="#000000" font-family="sans-serif" font-size="13" lengthAdjust="spacing" textLength="6.5" x="1110.975" y="425.2242">*</text></g><!--link Vehicle to Trip--><g class="link" data-entity-1="ent0002" data-entity-2="ent0007" data-link-type="association" data-source-line="101" id="lnk19"><path codeLine="101" d="M585.18,352.35 C591.01,354.74 596.8,357.06 602.5,359.26 C706,399.32 824.42,437.1 919.58,465.56" fill="none" id="Vehicle-Trip" style="stroke:#181818;stroke-width:1;"/><polygon fill="#000000" points="733.236,399.4297,725.611,393.7455,723.7261,399.313,733.236,399.4297" style="stroke:#000000;stroke-width:1;"/><text fill="#000000" font-family="sans-serif" font-size="13" lengthAdjust="spacing" textLength="43.3354" x="737.5" y="402.3269">usedIn</text><text fill="#000000" font-family="sans-serif" font-size="13" lengthAdjust="spacing" textLength="8.271" x="592.9904" y="352.6186">1</text><text fill="#000000" font-family="sans-serif" font-size="13" lengthAdjust="spacing" textLength="6.5" x="905.3484" y="459.9456">*</text></g><!--link FleetManager to VehicleDAO--><g class="link" data-entity-1="ent0010" data-entity-2="ent0013" data-link-type="dependency" data-source-line="103" id="lnk20"><path codeLine="103" d="M1809.5,112.23 C1809.5,147.66 1809.5,193.74 1809.5,231.52" fill="none" id="FleetManager-to-VehicleDAO" style="stroke:#181818;stroke-width:1;"/><polygon fill="#181818" points="1809.5,237.52,1813.5,228.52,1809.5,232.52,1805.5,228.52,1809.5,237.52" style="stroke:#181818;stroke-width:1;"/><polygon fill="#000000" points="1814.5,180.0464,1817.4389,171.0013,1811.5611,171.0013,1814.5,180.0464" style="stroke:#000000;stroke-width:1;"/><text fill="#000000" font-family="sans-serif" font-size="13" lengthAdjust="spacing" textLength="29.7832" x="1823.5" y="179.5469">uses</text></g><!--link FleetManager to DriverDAO--><g class="link" data-entity-1="ent0010" data-entity-2="ent0014" data-link-type="dependency" data-source-line="104" id="lnk21"><path codeLine="104" d="M1868.19,112.48 C1924.37,150.53 2003.6818,204.236 2059.8618,242.276" fill="none" id="FleetManager-to-DriverDAO" style="stroke:#181818;stroke-width:1;"/><polygon fill="#181818" points="2064.83,245.64,2059.6203,237.2818,2060.6898,242.8366,2055.135,243.9061,2064.83,245.64" style="stroke:#181818;stroke-width:1;"/><polygon fill="#000000" points="1975.6401,177.85,1969.7985,170.3448,1966.5027,175.2117,1975.6401,177.85" style="stroke:#000000;stroke-width:1;"/><text fill="#000000" font-family="sans-serif" font-size="13" lengthAdjust="spacing" textLength="29.7832" x="1980.5" y="179.5469">uses</text></g><!--link FleetManager to MaintenanceScheduler--><g class="link" data-entity-1="ent0010" data-entity-2="ent0012" data-link-type="dependency" data-source-line="105" id="lnk22"><path codeLine="105" d="M1744.64,112.48 C1682.55,150.53 1594.5259,204.4652 1532.4459,242.5052" fill="none" id="FleetManager-to-MaintenanceScheduler" style="stroke:#181818;stroke-width:1;"/><polygon fill="#181818" points="1527.33,245.64,1537.0938,244.3484,1531.5933,243.0276,1532.914,237.5271,1527.33,245.64" style="stroke:#181818;stroke-width:1;"/><polygon fill="#000000" points="1647.2367,177.6588,1656.4846,175.4388,1653.4135,170.4271,1647.2367,177.6588" style="stroke:#000000;stroke-width:1;"/><text fill="#000000" font-family="sans-serif" font-size="13" lengthAdjust="spacing" textLength="63.9463" x="1660.5" y="179.5469">delegates</text></g><!--link FleetManager to InventoryModule--><g class="link" data-entity-1="ent0010" data-entity-2="ent0011" data-link-type="dependency" data-source-line="106" id="lnk23"><path codeLine="106" d="M1620.79,95.73 C1454.89,118.24 1207.79,157.37 997.5,213.48 C964.78,222.21 935.4653,231.993 904.2253,243.583" fill="none" id="FleetManager-to-InventoryModule" style="stroke:#181818;stroke-width:1;"/><polygon fill="#181818" points="898.6,245.67,908.4293,246.2897,903.2878,243.9308,905.6467,238.7893,898.6,245.67" style="stroke:#181818;stroke-width:1;"/><polygon fill="#000000" points="1195.6032,176.0568,1205.0555,177.1073,1203.8677,171.3507,1195.6032,176.0568" style="stroke:#000000;stroke-width:1;"/><text fill="#000000" font-family="sans-serif" font-size="13" lengthAdjust="spacing" textLength="47.8613" x="1209.5" y="179.5469">notifies</text></g><!--link MaintenanceTicket to InventoryModule--><g class="link" data-entity-1="ent0008" data-entity-2="ent0011" data-link-type="dependency" data-source-line="108" id="lnk24"><path codeLine="108" d="M777.44,136.82 C782.95,172.29 788.6891,209.3011 793.4391,239.8811" fill="none" id="MaintenanceTicket-to-InventoryModule" style="stroke:#181818;stroke-width:1;"/><polygon fill="#181818" points="794.36,245.81,796.9312,236.3027,793.5926,240.8692,789.026,237.5306,794.36,245.81" style="stroke:#181818;stroke-width:1;"/><polygon fill="#000000" points="790.267,179.9872,791.7836,170.5984,785.9753,171.5,790.267,179.9872" style="stroke:#000000;stroke-width:1;"/><text fill="#000000" font-family="sans-serif" font-size="13" lengthAdjust="spacing" textLength="47.8613" x="798.5" y="179.5469">notifies</text></g><!--reverse link MaintenanceTicket to Vehicle--><g class="link" data-entity-1="ent0008" data-entity-2="ent0002" data-link-type="aggregation" data-source-line="109" id="lnk25"><path codeLine="109" d="M664.6452,140.866 C627.4252,165.516 594.27,187.48 555.58,213.12" fill="none" id="MaintenanceTicket-backto-Vehicle" style="stroke:#181818;stroke-width:1;"/><polygon fill="none" points="674.65,134.24,667.4389,134.218,664.6452,140.866,671.8562,140.8879,674.65,134.24" style="stroke:#181818;stroke-width:1;"/><polygon fill="#000000" points="618.3317,177.8078,627.4953,175.2624,624.2491,170.3623,618.3317,177.8078" style="stroke:#000000;stroke-width:1;"/><text fill="#000000" font-family="sans-serif" font-size="13" lengthAdjust="spacing" textLength="69.418" x="631.5" y="179.5469">references</text></g><!--link VehicleDAO to DBConnection--><g class="link" data-entity-1="ent0013" data-entity-2="ent0015" data-link-type="dependency" data-source-line="111" id="lnk26"><path codeLine="111" d="M1842.22,335.08 C1871.96,378.46 1911.7959,436.5423 1938.6459,475.6823" fill="none" id="VehicleDAO-to-DBConnection" style="stroke:#181818;stroke-width:1;"/><polygon fill="#181818" points="1942.04,480.63,1940.2473,470.9457,1939.2116,476.5069,1933.6503,475.4712,1942.04,480.63" style="stroke:#181818;stroke-width:1;"/><text fill="#000000" font-family="sans-serif" font-size="13" lengthAdjust="spacing" textLength="45.6904" x="1889.5" y="402.3269">&#171;uses&#187;</text></g><!--link DriverDAO to DBConnection--><g class="link" data-entity-1="ent0014" data-entity-2="ent0015" data-link-type="dependency" data-source-line="112" id="lnk27"><path codeLine="112" d="M2096.33,326.99 C2066.67,370.24 2022.9837,433.942 1994.4037,475.612" fill="none" id="DriverDAO-to-DBConnection" style="stroke:#181818;stroke-width:1;"/><polygon fill="#181818" points="1991.01,480.56,1999.3992,475.4004,1993.8381,476.4366,1992.8018,470.8755,1991.01,480.56" style="stroke:#181818;stroke-width:1;"/><text fill="#000000" font-family="sans-serif" font-size="13" lengthAdjust="spacing" textLength="45.6904" x="2051.5" y="402.3269">&#171;uses&#187;</text></g><!--link FleetManager to GMN28--><g class="link" data-entity-1="ent0010" data-entity-2="ent0029" data-link-type="association" data-source-line="116" id="lnk30"><path d="M1998.46,71.74 C2056.86,71.74 2115.27,71.74 2173.67,71.74" fill="none" id="FleetManager-GMN28" style="stroke:#181818;stroke-width:1;stroke-dasharray:7,7;"/></g><!--link GMN28 to GMN31--><g class="link" data-entity-1="ent0029" data-entity-2="ent0032" data-link-type="association" data-source-line="121" id="lnk33"><path d="M2358.51,92.36 C2382.44,128.45 2433.71,205.77 2463.59,250.82" fill="none" id="GMN28-GMN31" style="stroke:#181818;stroke-width:1;stroke-dasharray:7,7;"/></g><!--SRC=[lLPBRnit4Bxlho1yyRgEdFQwC0J8DPG8a6lNKdodoD4kOOfSaxDAr3R_lKFkMvBJdW8OiZGSpdpp-ZYNRAu1SAwhRsp2Fgkyc6ZOWsP2S- -PVmKKHNB9ldXWM2ZFjae3-wgmO4-Q6_poi6JMiTBPlPAaOXatRBOWNOwC2m4b-bvJcRB2coJnh_IDExwhtSmGdTfK20jXpKhz1UpN9E4RZuuBR92yGA44kVuxOGHKAm760nb6oDYAhfiy7km87iz99csrqH1bsmhqCWGra5upmRMemlqv7VzkZQzs9IfhqgkHclAVWMii3a6-iPRCctYG0px3MwKSo6MDPdqe8MWrSBudIGrzxIhn6e7_JAylL8YVxVFUgJsufaPAPbHmZDyDtuthf7j30ta0yMV5jTega7FhqdtM5dw0gND7JNdEMKNY4uUExeuyQPihavPavwjryfpvjLFb6VCUkSEb5JpaSEG3Z3mhzw80MMcGQnLGtLCfefoSgDo0hDEMDUaR7JNHTsc8qEl3L8wkVM3x8zrpCJrm2WCCDmBMIj1qdmcmiREGeo2KzzKufS81HI9ds8LqpOn5jJqyRgW4XCc79jbR9Ni02xC7WzOT5WYx_zCfRnMHXy93gtBD92LJOFhMo4vSH4Pxu8Pum3KZK6Si53GbjE7_KO_lgUaa1J6BYZk2cCf1Pd-Oqowa1nkgtBXq47FmHCtYKuovpaxJtu8FDweo85YX5Q-feknausHzOEz6F32xQdgjZRpjlO7AUAewzoNDjn8uvqfNxaXfgot70RVK1_UpnpQ_iktKTumJXyoqRWvYMooLnzj6C8qwMsLQAtU7XcdISaZnL_qS777E24ejwWiu11ASrDAxmqAcJUjTTSFNsxqZgZGWmZIpsrjFxZMWDTDfuuX2wZL2HFslOEMIFOEENE0BLVgaVWKcat-cNGo1eaU2f27GYzykw81T_79Har3MyS7QicdIleMdQaHzSc589HaDmMGo7TOiwddIEb7ga_c-pjbcevS4DEHKgxDtZaSagub2HUtab9J-yyxf5KkPQ1EJqVHjmG6THWU3s6EKmz9cLDmGwdIQzD7_I8ig-r1fL2MzOGe376vam0O-2P_CqHP5UBOZ8efSDigBiFJkA1DJnZlQyL7nfQ4ZpsgIRzzBjlSjFLE8zPlCa1xH11eCIOrXOn7jZcojmz96VvmL_N9NhtKtR2Obu-tovJ_k00ih0nfc08XcRyZ0gifpyCJp9Fk6zFf1ILiWxNoqvL669QNPPQH7g9_ZJ_RqnwUFgvTFRElihbuQkmKmR8-rxcD805NOOLmQMJYLYkTXALI67MmLjifGnH0YCHDrGXValm00]--></g></svg>